<svg xmlns="http://www.w3.org/2000/svg" xml:space="preserve" width="2048" height="2048" style="shape-rendering:geometricPrecision;text-rendering:geometricPrecision;image-rendering:optimizeQuality;fill-rule:evenodd;clip-rule:evenodd"><defs><style>.fil0,.fil1{fill:whitesmoke;fill-rule:nonzero}.fil1{fill:whitesmoke}</style></defs><g id="Layer_x0020_1"><path class="fil0" d="M288 884.109a670.929 670.929 0 0 1 42.582-4.051c212.654-13.29 482.04 66.95 705.367 210.005 225.011 144.132 404.513 352.672 435.285 595.092 1.634 12.86 2.834 25.32 3.586 37.352l-62.024 3.65c-.728-11.642-1.765-22.713-3.098-33.219-28.186-222.037-196.264-415.392-407.313-550.582-212.733-136.269-467.904-212.789-668.152-200.274-13.569.848-26.4 2.035-38.449 3.564l-7.783-61.537zm.243 252.507c116.467-14.144 260.686 12.169 397.261 68.828 130.178 54.004 254.225 135.915 341.386 236.934 36.272 42.04 66.238 87.452 87.739 135.638 20.476 45.894 33.27 94.191 36.548 144.37l-62.024 3.891c-2.785-42.619-13.705-83.763-31.196-122.965-18.938-42.442-45.59-82.743-78.01-120.317-80.578-93.39-196.3-169.546-318.279-220.149-127.056-52.709-260.02-77.336-366.128-64.45l-7.296-61.78zm0-123.737c10.662-1.294 21.977-2.33 33.902-3.109 188.166-12.293 427.585 55.572 625.684 177.138 200.335 122.94 359.756 301.386 384.976 509.044 1.01 8.324 1.823 17.132 2.429 26.435l-62.023 3.89c-.475-7.272-1.207-14.955-2.186-23.028-22.662-186.598-170.013-349.46-355.545-463.316-187.77-115.228-413.322-179.645-589.443-168.139a551.06 551.06 0 0 0-30.497 2.866l-7.296-61.78z"/><path class="fil0" d="M1750.27 1072.78c-167.717-26.532-339.429-14.254-490.67 42.486-39.395 14.779-77.404 32.603-113.591 53.558a1264.446 1264.446 0 0 0-53.356-40.34c45.797-28.565 94.496-52.29 145.3-71.349 161.476-60.579 344.134-73.792 522.046-45.648l-9.728 61.293zM1750.76 1206.89c-148.628-21.674-300.65-9.516-432.447 41.62-19.628 7.614-38.804 16.104-57.46 25.475a1073.785 1073.785 0 0 0-46.23-45.905c26.17-14.127 53.332-26.602 81.312-37.457 142.11-55.138 305.023-68.392 463.582-45.27l-8.757 61.537z"/><path class="fil1" d="M1463.92 971.665V784.884h64.002v181.774a1079.97 1079.97 0 0 0-64.002 5.007z"/><path class="fil1" d="M1490.51 289.722c43.974 0 81.38 35.233 106.3 92.2 21.417 48.954 34.665 115.778 34.665 188.863 0 73.083-13.248 139.91-34.665 188.864-24.921 56.965-62.327 92.198-106.3 92.198-43.974 0-81.38-35.233-106.3-92.199-21.418-48.954-34.667-115.78-34.667-188.863s13.249-139.91 34.667-188.864c24.921-56.964 62.325-92.2 106.3-92.2zm47.8 117.699c-14.513-33.176-31.595-53.698-47.8-53.698s-33.286 20.522-47.8 53.698c-18.02 41.185-29.165 98.896-29.165 163.364s11.146 122.178 29.165 163.363c14.513 33.176 31.595 53.698 47.8 53.698 16.204 0 33.286-20.52 47.8-53.697 18.02-41.186 29.164-98.896 29.164-163.364 0-64.47-11.146-122.18-29.164-163.364zM1166.17 1052.49V860.099h64.002v165.791c-1.152.426-2.306.847-3.456 1.278a876.024 876.024 0 0 0-60.546 25.322z"/><path class="fil1" d="M1198.17 452.576c38.681 0 71.293 30.33 92.745 79.365 17.948 41.025 29.05 96.896 29.05 157.88 0 60.986-11.102 116.855-29.05 157.88-21.452 49.034-54.064 79.365-92.745 79.365-38.68 0-71.293-30.331-92.745-79.366-17.948-41.025-29.052-96.894-29.052-157.879 0-60.985 11.103-116.855 29.052-157.88 21.452-49.035 54.063-79.365 92.745-79.365zm34.245 104.865c-11.045-25.246-23.334-40.864-34.245-40.864-10.911 0-23.2 15.618-34.245 40.864-14.55 33.256-23.55 80.011-23.55 132.38 0 52.368 9 99.123 23.55 132.379 11.045 25.246 23.334 40.864 34.245 40.864 10.911 0 23.2-15.617 34.245-40.863 14.549-33.256 23.549-80.011 23.549-132.38s-9-99.124-23.55-132.38z"/></g><path style="fill:none" d="M0 0h2048v2048H0z"/></svg>