<?xml version="1.0" standalone="no"?><svg xmlns="http://www.w3.org/2000/svg" viewBox="0 0 1440 320"><path fill="#016634" fill-opacity="1" d="M0,192L21.8,202.7C43.6,213,87,235,131,245.3C174.5,256,218,256,262,256C305.5,256,349,256,393,240C436.4,224,480,192,524,186.7C567.3,181,611,203,655,229.3C698.2,256,742,288,785,298.7C829.1,309,873,299,916,250.7C960,203,1004,117,1047,96C1090.9,75,1135,117,1178,112C1221.8,107,1265,53,1309,58.7C1352.7,64,1396,128,1418,160L1440,192L1440,320L1418.2,320C1396.4,320,1353,320,1309,320C1265.5,320,1222,320,1178,320C1134.5,320,1091,320,1047,320C1003.6,320,960,320,916,320C872.7,320,829,320,785,320C741.8,320,698,320,655,320C610.9,320,567,320,524,320C480,320,436,320,393,320C349.1,320,305,320,262,320C218.2,320,175,320,131,320C87.3,320,44,320,22,320L0,320Z"></path></svg>